<svg height="496pt" viewBox="0 -80 496 496" width="496pt" xmlns="http://www.w3.org/2000/svg"><path d="m8 56h480v272h-480zm0 0" fill="#c16b3f"/><path d="m8 269.457031c27.679688 6.808594 57.246094 10.542969 88 10.542969 154.640625 0 280-93.128906 280-208 0-5.390625-.367188-10.710938-.902344-16h-367.097656zm0 0" fill="#e39854"/><path d="m424 24h32v32h-32zm0 0" fill="#c18e59"/><path d="m24 56v-32h48v32" fill="#c18e59"/><g fill="#8892a0"><path d="m376 56-48-48h-160l-48 48"/><path d="m8 88h48c8.839844 0 16 7.160156 16 16v176c0 8.839844-7.160156 16-16 16h-48"/><path d="m488 88h-48c-8.839844 0-16 7.160156-16 16v176c0 8.839844 7.160156 16 16 16h48"/><path d="m352 192c0 57.4375-46.5625 104-104 104s-104-46.5625-104-104 46.5625-104 104-104 104 46.5625 104 104zm0 0"/></g><path d="m320 192c0 39.765625-32.234375 72-72 72s-72-32.234375-72-72 32.234375-72 72-72 72 32.234375 72 72zm0 0" fill="#e8eff4"/><path d="m288 192c0 22.089844-17.910156 40-40 40s-40-17.910156-40-40 17.910156-40 40-40 40 17.910156 40 40zm0 0" fill="#b8cbd9"/><path d="m392 112c0 8.835938-7.164062 16-16 16s-16-7.164062-16-16 7.164062-16 16-16 16 7.164062 16 16zm0 0" fill="#b8cbd9"/><path d="m136 280c0 8.835938-7.164062 16-16 16s-16-7.164062-16-16 7.164062-16 16-16 16 7.164062 16 16zm0 0" fill="#b8cbd9"/><path d="m488 336h-480c-4.425781 0-8-3.574219-8-8v-272c0-4.425781 3.574219-8 8-8h480c4.425781 0 8 3.574219 8 8v272c0 4.425781-3.574219 8-8 8zm-472-16h464v-256h-464zm0 0"/><path d="m248 304c-61.761719 0-112-50.238281-112-112s50.238281-112 112-112 112 50.238281 112 112-50.238281 112-112 112zm0-208c-52.9375 0-96 43.0625-96 96s43.0625 96 96 96 96-43.0625 96-96-43.0625-96-96-96zm0 0"/><path d="m184 192h-16c0-44.113281 35.886719-80 80-80v16c-35.289062 0-64 28.710938-64 64zm0 0"/><path d="m248 272v-16c35.289062 0 64-28.710938 64-64h16c0 44.113281-35.886719 80-80 80zm0 0"/><path d="m248 240c-26.472656 0-48-21.527344-48-48s21.527344-48 48-48 48 21.527344 48 48-21.527344 48-48 48zm0-80c-17.648438 0-32 14.351562-32 32s14.351562 32 32 32 32-14.351562 32-32-14.351562-32-32-32zm0 0"/><path d="m56 304h-48v-16h48c4.414062 0 8-3.585938 8-8v-176c0-4.414062-3.585938-8-8-8h-48v-16h48c13.230469 0 24 10.769531 24 24v176c0 13.230469-10.769531 24-24 24zm0 0"/><path d="m488 304h-48c-13.230469 0-24-10.769531-24-24v-176c0-13.230469 10.769531-24 24-24h48v16h-48c-4.414062 0-8 3.585938-8 8v176c0 4.414062 3.585938 8 8 8h48zm0 0"/><path d="m376 136c-13.230469 0-24-10.769531-24-24s10.769531-24 24-24 24 10.769531 24 24-10.769531 24-24 24zm0-32c-4.414062 0-8 3.585938-8 8s3.585938 8 8 8 8-3.585938 8-8-3.585938-8-8-8zm0 0"/><path d="m120 304c-13.230469 0-24-10.769531-24-24s10.769531-24 24-24 24 10.769531 24 24-10.769531 24-24 24zm0-32c-4.414062 0-8 3.585938-8 8s3.585938 8 8 8 8-3.585938 8-8-3.585938-8-8-8zm0 0"/><path d="m370.34375 61.65625-45.65625-45.65625h-153.375l-45.65625 45.65625-11.3125-11.3125 48-48c1.496094-1.503906 3.527344-2.34375 5.65625-2.34375h160c2.128906 0 4.160156.839844 5.65625 2.34375l48 48zm0 0"/><path d="m448 24h16v32h-16zm0 0"/><path d="m416 24h16v32h-16zm0 0"/><path d="m400 16h80v16h-80zm0 0"/><path d="m80 56h-16v-24h-32v24h-16v-32c0-4.425781 3.574219-8 8-8h48c4.425781 0 8 3.574219 8 8zm0 0"/></svg>